<svg width="32" height="32" viewBox="0 0 32 32" fill="none" xmlns="http://www.w3.org/2000/svg">
<path d="M31.6522 16H29.9478C30.6087 14.713 30.9565 13.287 30.9565 11.8261C30.9565 6.85217 26.9217 2.78261 21.9478 2.78261C19.8609 2.78261 17.8087 3.51304 16.2087 4.86957H9.3913V4.17391C9.3913 1.87826 7.51304 0 5.21739 0C2.92174 0 1.04348 1.87826 1.04348 4.17391V16H0.347826C0.13913 16 0 16.1391 0 16.3478V18.4348C0 18.6435 0.13913 18.7826 0.347826 18.7826H0.730435L2.43478 31.687C2.46957 31.8609 2.6087 32 2.78261 32H29.2174C29.3913 32 29.5304 31.8609 29.5652 31.687L31.2696 18.7826H31.6522C31.8609 18.7826 32 18.6435 32 18.4348V16.3478C32 16.1391 31.8609 16 31.6522 16ZM21.9478 3.47826C26.5391 3.47826 30.2609 7.23478 30.2609 11.8261C30.2609 13.287 29.8783 14.7478 29.1478 16H19.1304V13.2522C19.6522 14.2609 20.6957 14.9565 21.913 14.9565C23.6522 14.9565 25.0435 13.5652 25.0435 11.8261C25.0435 10.087 23.6522 8.69565 21.913 8.69565C20.6957 8.69565 19.6522 9.3913 19.1304 10.4V9.66957C19.1304 9.35652 19.2348 9.07826 19.4435 8.86957L20.313 8C20.6609 7.65217 20.8348 7.2 20.8348 6.71304C20.8348 5.70435 20 4.90435 19.0261 4.90435H17.3913C18.7478 3.96522 20.313 3.47826 21.9478 3.47826ZM19.4783 11.8261C19.4783 10.4696 20.5565 9.3913 21.913 9.3913C23.2696 9.3913 24.3478 10.4696 24.3478 11.8261C24.3478 13.1826 23.2696 14.2609 21.913 14.2609C20.5565 14.2609 19.4783 13.1826 19.4783 11.8261ZM19.0609 5.56522C19.687 5.56522 20.1739 6.08696 20.1739 6.67826C20.1739 6.9913 20.0696 7.26957 19.8609 7.47826L18.9913 8.34783C18.6435 8.69565 18.4696 9.14783 18.4696 9.63478V16H9.3913V5.56522H19.0609ZM1.73913 4.17391C1.73913 2.26087 3.30435 0.695652 5.21739 0.695652C7.13043 0.695652 8.69565 2.26087 8.69565 4.17391V16H1.73913V4.17391ZM27.1652 18.7826L27.5478 21.2174H24.4174L24.0348 18.7826H27.1652ZM29.7739 24.6957H28.8L28.3478 21.913H30.1217L29.7739 24.6957ZM20.4522 24.6957H17.3217L16.8696 21.913H20L20.4522 24.6957ZM20.7304 21.913H23.8609L24.313 24.6957H21.1826L20.7304 21.913ZM13.6348 25.3913H16.7652L17.2174 28.1739H14.087L13.6348 25.3913ZM13.3565 28.1739H10.2261L9.77391 25.3913H12.9043L13.3565 28.1739ZM17.4609 25.3913H20.5913L21.0435 28.1739H17.913L17.4609 25.3913ZM16.6261 24.6957H13.4957L13.0435 21.913H16.1739L16.6261 24.6957ZM12.8 24.6957H9.66957L9.21739 21.913H12.3478L12.8 24.6957ZM8.97391 24.6957H5.84348L5.3913 21.913H8.52174L8.97391 24.6957ZM5.14783 24.6957H2.1913L1.8087 21.913H4.66087L5.14783 24.6957ZM2.29565 25.3913H5.25217L5.70435 28.1739H2.67826L2.29565 25.3913ZM5.98261 25.3913H9.11304L9.56522 28.1739H6.43478L5.98261 25.3913ZM9.63478 28.8696L10.0174 31.3043H6.88696L6.50435 28.8696H9.63478ZM10.3304 28.8696H13.4609L13.8435 31.3043H10.713L10.3304 28.8696ZM14.1565 28.8696H17.287L17.6696 31.3043H14.5391L14.1565 28.8696ZM17.9826 28.8696H21.113L21.4957 31.3043H18.3652L17.9826 28.8696ZM21.8087 28.8696H24.9391L25.3217 31.3043H22.1913L21.8087 28.8696ZM21.7043 28.1739L21.2522 25.3913H24.3826L24.8348 28.1739H21.7043ZM25.113 25.3913H28.2435L28.6957 28.1739H25.5652L25.113 25.3913ZM29.3565 28.0348L28.9391 25.3913H29.7043L29.3565 28.0348ZM28.1043 24.6957H24.9739L24.5217 21.913H27.6522L28.1043 24.6957ZM23.3391 18.7826L23.7217 21.2174H20.5913L20.2087 18.7826H23.3391ZM19.513 18.7826L19.8957 21.2174H16.7652L16.3826 18.7826H19.513ZM15.687 18.7826L16.0696 21.2174H12.9391L12.5565 18.7826H15.687ZM11.8609 18.7826L12.2435 21.2174H9.11304L8.73043 18.7826H11.8609ZM8.03478 18.7826L8.41739 21.2174H5.28696L4.90435 18.7826H8.03478ZM4.2087 18.7826L4.5913 21.2174H1.77391L1.46087 18.7826H4.2087ZM2.78261 28.8696H5.84348L6.22609 31.3043H3.09565L2.78261 28.8696ZM26.0522 31.3043L25.6696 28.8696H28.8L29.0435 30.4696L28.9043 31.3043H26.0522ZM30.2261 21.2174H28.2435L27.8609 18.7826H30.5391L30.2261 21.2174ZM31.3043 18.087H30.9565H1.04348H0.695652V16.6957H1.3913H9.04348H31.3043V18.087Z" fill="white"/>
<path d="M5.21735 3.47827C4.69561 3.47827 2.08691 3.51305 2.08691 4.52175C2.08691 5.53045 4.69561 5.56523 5.21735 5.56523C5.73909 5.56523 8.34778 5.53045 8.34778 4.52175C8.34778 3.51305 5.73909 3.47827 5.21735 3.47827ZM5.21735 4.86958C3.99996 4.86958 3.16518 4.66088 2.88691 4.52175C3.19996 4.38262 3.99996 4.17392 5.21735 4.17392C6.43474 4.17392 7.26952 4.38262 7.54778 4.52175C7.26952 4.66088 6.43474 4.86958 5.21735 4.86958Z" fill="white"/>
<path d="M5.21735 7.65219C4.69561 7.65219 2.08691 7.68697 2.08691 8.69567C2.08691 9.70437 4.69561 9.73915 5.21735 9.73915C5.73909 9.73915 8.34778 9.70437 8.34778 8.69567C8.34778 7.68697 5.73909 7.65219 5.21735 7.65219ZM5.21735 9.0435C3.99996 9.0435 3.16518 8.8348 2.88691 8.69567C3.19996 8.55654 3.99996 8.34784 5.21735 8.34784C6.43474 8.34784 7.26952 8.55654 7.54778 8.69567C7.26952 8.8348 6.43474 9.0435 5.21735 9.0435Z" fill="white"/>
<path d="M5.21735 11.8261C4.69561 11.8261 2.08691 11.8609 2.08691 12.8696C2.08691 13.8783 4.69561 13.913 5.21735 13.913C5.73909 13.913 8.34778 13.8783 8.34778 12.8696C8.34778 11.8609 5.73909 11.8261 5.21735 11.8261ZM5.21735 13.2174C3.99996 13.2174 3.16518 13.0087 2.88691 12.8696C3.19996 12.7304 3.99996 12.5217 5.21735 12.5217C6.43474 12.5217 7.26952 12.7304 7.54778 12.8696C7.26952 13.0087 6.43474 13.2174 5.21735 13.2174Z" fill="white"/>
</svg>
